<?xml version="1.0" encoding="UTF-8"?>
<!DOCTYPE svg PUBLIC "-//W3C//DTD SVG 1.1//EN" "http://www.w3.org/Graphics/SVG/1.1/DTD/svg11.dtd">
<svg version="1.1" xmlns="http://www.w3.org/2000/svg" xmlns:xlink="http://www.w3.org/1999/xlink" x="0" y="0" width="179" height="149" viewBox="0, 0, 179, 149">
  <g id="Layer_1">
    <path d="M141.274,119.527 C140.922,116.239 139.697,112.147 136.801,109.97 C133.987,107.852 129.235,107.166 128.018,110.981 C127.004,114.153 129.079,116.811 130.375,119.583 C130.819,120.53 131.268,125.274 131.123,126.116 C130.563,129.382 128.867,127.051 126.479,128.52 C124.156,129.948 125.539,132.913 127.5,134.108 C130.772,136.099 136.993,135.468 140.18,131.444 C143.145,127.7 141.742,123.911 141.274,119.527" fill="#C0905D"/>
    <path d="M141.274,119.527 C140.922,116.239 139.697,112.147 136.801,109.97 C133.987,107.852 129.235,107.166 128.018,110.981 C127.004,114.153 129.079,116.811 130.375,119.583 C130.819,120.53 131.268,125.274 131.123,126.116 C130.563,129.382 128.867,127.051 126.479,128.52 C124.156,129.948 125.539,132.913 127.5,134.108 C130.772,136.099 136.993,135.468 140.18,131.444 C143.145,127.7 141.742,123.911 141.274,119.527 z" fill-opacity="0" stroke="#1A1919" stroke-width="1.417" stroke-linecap="round" stroke-linejoin="round"/>
    <g>
      <path d="M49.858,4.964 C51.759,4.216 57.78,2.315 61.041,3.314 C59.41,4.563 58.943,3.494 57.584,4.493 C64.377,4.993 72.682,8.755 73.342,9.488 C75.707,12.114 74.071,10.783 77.358,13.214 C82.334,16.895 86.576,24.022 92.362,26.72 C97.507,29.12 101.644,29.057 105.403,26.22 C102.143,23.224 98.882,21.059 98.882,17.729 C101.056,16.398 101.883,15.335 102.143,12.235 C110.735,9.606 107.214,10.571 108.663,4.244 C115.302,6.124 113.916,-1.417 118.988,2.246 C124.06,5.909 136.959,4.227 145.071,7.241 C150.918,9.413 151.765,12.701 156.482,16.731 C160.061,19.789 162.822,23.391 163.545,27.72 C162.584,29.968 164.536,35.609 165.719,38.208 C166.554,40.04 168.514,42.846 170.124,44.197 C173.436,46.977 174.137,61.072 174.891,64.731 C176.074,70.477 177.451,74.145 177.457,80.039 C177.462,84.587 175.299,91.577 173.883,98.189 C173.098,97.276 172.725,93.86 171.957,92.964 C171.772,95.051 170.969,101.407 169.207,102.864 C168.726,102.06 167.947,100.794 167.557,99.839 C165.633,102.589 164.532,105.614 164.09,110.466 C163.526,116.642 162.803,119.457 160.829,120.788 C157.906,122.76 156.916,122.452 154.308,125.118 C151.601,127.886 152.201,127.726 150.686,131.111 C148.208,136.642 143.803,145.097 139.818,145.763 C135.852,146.425 127.806,148.357 127.139,142.1 C126.848,139.372 132.709,137.624 133.659,135.44 C135.833,130.445 136.196,124.784 131.848,120.788 C128.191,117.427 125.75,119.423 119.893,116.126 C115.698,113.767 111.537,107.466 108.392,108.385 C103.758,109.739 96.057,110.839 92.483,111.939 C85.68,114.032 82.401,118.884 78.182,120.464 C73.965,122.044 73.161,122.12 68.452,125.451 C65.543,127.507 62.656,130.445 59.757,135.44 C57.66,139.055 54.308,145.769 51.426,147.095 C46.354,149.426 39.109,148.427 38.747,143.433 C38.58,141.143 40.92,139.436 43.093,135.44 C38.582,140.265 28.978,139.498 28.133,133.664 C27.408,128.67 30.394,131.579 35.007,127.339 C37.543,125.009 38.207,120.712 37.483,117.714 C37.007,115.755 38.01,115.286 36.383,113.314 C32.941,107.819 22.444,100.809 22.082,88.156 C22.264,89.321 21.72,92.152 20.271,94.15 C19.546,89.821 18.641,88.989 16.829,85.659 C16.649,87.324 17.373,87.49 15.924,89.155 C14.384,84.909 13.219,82.03 12.182,79.489 C10.009,74.161 6.867,68.177 6.505,58.852 C4.795,61.473 5.196,61.72 3.932,63.539 C4.207,61.064 3.684,58.012 5.858,55.014 C4.771,56.013 3.081,57.996 0.907,56.664 C3.444,54.333 5.233,52.309 6.682,47.314 C7.018,42.692 10.175,30.317 11.124,27.969 C12.918,23.533 14.06,19.175 17.01,15.233 C19.023,12.544 23.457,10.535 26.361,8.817 C27.475,8.159 36.366,4.888 37.479,5.743 C36.775,5.202 36.528,4.165 35.74,3.681 C38.692,3.556 40.959,3.481 43.728,4.244 C43.246,3.683 43.261,2.971 42.707,2.397 C46.048,3.316 47.129,3.785 49.858,4.964" fill="#FFFFFE"/>
      <path d="M50.068,6.372 C51.637,6.477 53.082,5.437 54.616,5.227 C56.322,4.995 58.375,5.32 60.059,5.565 C64.307,6.183 66.753,7.981 70.758,9.089 C73.718,9.909 74.49,10.401 76.807,12.114 C81.783,15.794 86.574,24.018 92.358,26.719 C95.235,28.061 99.889,29.451 102.988,27.91 C108.551,25.139 100.65,22.826 100.397,19.622 C100.363,19.22 106.516,18.881 107.157,18.525 C109.535,17.206 108.856,14.751 110.928,13.272 C112.385,12.233 115.226,13.526 116.449,12.387 C117.59,11.323 116.494,9.209 118.412,8.101 C122.894,5.513 129.656,10.468 134.529,9.794 C136.624,9.504 136.149,9.072 137.933,10.231 C139.438,11.21 140.139,13.441 142.088,13.763 C143.26,13.955 145.418,12.237 147.238,12.774 C149.283,13.378 151.946,15.602 152.678,17.23 C153.494,19.042 156.664,24.749 158.6,26.282 C160.09,27.465 160.069,30.267 160.761,31.964 C161.947,34.87 162.863,38.128 164.977,40.615 C166.755,42.708 168.5,44.104 168.813,46.802 C169.177,49.929 168.362,52.917 169.713,55.991 C171.08,59.099 172.09,61.71 172.981,64.987 C174.168,69.363 175.525,74.235 174.903,78.782 C171.775,78.911 170.449,79.167 170.23,82.151 C170.103,83.882 171.653,85.538 170.219,87.005 C168.455,88.807 165.701,86.706 164.444,90.154 C163.695,92.21 164.213,94.919 164.09,97.147 C163.936,99.923 162.613,100.388 161.899,102.789 C160.53,107.38 163.418,112.772 162.551,117.566 C161.983,120.71 158.64,121.737 156.191,123.397 C152.487,125.907 151.391,127.329 149.957,132.197 C148.828,136.03 144.776,144.934 139.818,145.763 C135.852,146.425 127.806,148.357 127.139,142.1 C126.848,139.372 132.709,137.624 133.659,135.44 C135.833,130.445 136.196,124.784 131.848,120.788 C128.191,117.427 125.75,119.423 119.893,116.126 C117.015,114.507 115.135,112.232 112.928,110.041 C111.534,108.657 110.859,109.063 110.174,107.093 C110.065,106.781 110.568,103.91 110.049,103.864 C107.244,103.621 105.356,106.122 103.201,107.313 C100.526,108.794 97.795,109.243 94.689,108.759 C91.95,108.33 88.551,104.702 85.841,106.048 C82.766,107.574 84.436,110.6 79.737,108.511 C78.798,113.222 87.981,113.649 81.758,118.539 C78.352,121.216 72.176,122.815 68.447,125.454 C65.539,127.511 62.654,130.448 59.757,135.44 C57.66,139.055 54.308,145.769 51.426,147.095 C46.354,149.426 39.109,148.427 38.747,143.433 C38.58,141.143 40.92,139.436 43.093,135.44 C38.022,136.772 28.362,139.276 27.517,133.442 C26.792,128.448 32.322,129.691 36.936,125.451 C39.471,123.12 38.385,119.457 37.66,116.46 C37.185,114.501 35.574,113.354 33.948,111.384 C29.954,106.543 25.064,99.008 24.35,92.636 C23.812,87.837 25.274,87.518 20.242,85.8 C18.078,85.061 16.903,83.266 15.562,81.497 C13.39,78.633 12.626,77.721 10.99,74.997 C10.307,73.861 9.26,71.454 8.38,70.175 C6.233,67.053 8.638,60.836 8.217,57.352 C7.999,55.552 8.619,53.652 8.316,51.86 C7.862,49.176 7.975,50.458 8.425,47.864 C8.86,45.35 8.696,41.08 9.041,38.542 C9.539,34.888 9.724,31.429 11.124,27.968 C12.917,23.537 14.059,19.18 17.005,15.241 C19.89,11.38 25.158,9.009 29.842,7.534 C30.792,7.235 44.611,4.243 44.119,6.183 C44.235,5.724 44.488,5.427 44.608,4.97 C47.4,5.061 48.359,6.255 50.068,6.372" fill="#FAD294"/>
      <path d="M98.792,27.249 C101.168,27.405 103.485,27.346 105.481,26.015 C106.52,25.325 106.031,23.601 107.473,22.914 C109.674,21.864 113.501,23.729 115.322,22.337 C116.783,21.22 115.547,18.905 116.862,17.483 C117.785,16.483 120.012,16.989 121.27,16.507 C122.656,15.975 122.063,14.866 124.321,14.566 C128.096,14.065 129.919,17.273 133.29,18.16 C142.756,20.65 152.737,24.313 156.557,33.93 C157.504,36.315 160.028,38.948 159.488,41.511 C157.643,50.263 166.87,57.821 165.113,66.787 C160.803,67.617 163.49,74.912 163.582,77.487 C163.76,82.374 161.574,83.784 157.026,82.911 C152.914,82.125 154.36,87.329 151.047,88.823 C148.677,89.89 145.391,91.111 144.164,93.817 C142.354,97.811 144.737,99.245 144.89,101.808 C145.113,105.524 141.694,108.858 148.151,110.134 C150.459,110.589 154.155,111.459 155.758,114.129 C156.573,115.487 156.901,119.151 156.844,120.788 C156.729,124.173 152.248,125.996 151.485,129.368 C150.168,135.181 145.251,144.098 139.818,145.763 C135.993,146.934 127.806,148.357 127.139,142.1 C126.848,139.372 132.709,137.624 133.659,135.44 C136.01,130.038 139.456,126.491 136.82,120.458 C134.748,115.716 132.328,116.987 127.682,115.878 C124.392,115.091 122.067,114.129 118.988,111.382 C116.026,108.739 116.925,104.509 115.819,101.225 C114.863,98.393 114.026,94.285 109.731,95.132 C104.682,96.127 102.571,103.158 97.504,103.909 C93.37,104.521 90.674,97.353 87.265,98.96 C85.007,100.024 85.274,103.075 82.547,104.309 C79.545,105.67 76.912,104.333 73.871,105.14 C69.889,106.193 72.168,112.025 71.863,114.657 C71.561,117.274 70.401,117.649 68.711,119.397 C67.082,121.081 65.77,125.975 64.377,127.864 C61.17,132.21 60.116,132.111 58.431,137.104 C57.355,140.294 54.872,145.511 51.426,147.095 C48.179,148.587 42.647,149.169 40.008,146.284 C33.948,139.661 45.874,136.409 47.803,131.86 C48.678,129.789 47.459,127.033 47.803,124.868 C48.295,121.768 49.859,119.059 48.346,116.126 C47.482,114.451 45.987,112.706 44.616,111.501 C45.116,118.048 47.379,129.583 43.093,135.44 C40.413,139.102 28.431,139.743 27.517,133.442 C26.966,129.648 31.432,129.735 34.457,127.89 C38.146,125.638 38.348,123.458 38.022,119.124 C37.8,116.177 37.248,112.901 38.475,110.217 C39.363,108.274 40.066,107.332 40.577,105.141 C41.687,100.374 46.676,100.887 50.764,99.788 C55.859,98.419 57.356,94.186 61.853,92.069 C66.135,90.052 71.115,89.934 75.733,89.35 C78.113,89.05 80.626,88.765 82.899,87.956 C85.143,87.157 85.947,85.24 87.899,84.021 C88.809,83.452 90.273,83.419 91.009,82.595 C91.76,81.755 92.082,79.782 92.399,78.674 C94.383,71.744 96.196,63.49 95.406,56.289 C94.901,51.682 93.085,47.338 92.731,42.702 C92.555,40.401 93.844,35.354 92.343,33.54 C91.768,32.85 90.709,31.369 90.199,30.479 C87.192,25.239 95.598,27.041 98.792,27.249" fill="#E1AD6F"/>
    </g>
    <path d="M136.947,131.72 C137.497,133.194 138.187,133.845 139.745,134.042 C140.139,134.091 140.74,132.735 141.258,132.679 C141.899,132.607 143.375,133.411 143.519,133.373 C146.137,132.669 147.92,129.877 150.992,129.83 C151.901,129.816 148.526,134.618 148.24,135.025 C146.906,136.929 146.103,139.255 143.469,139.992 C142.725,140.2 135.91,139.457 135.887,140.386 C135.905,139.651 135.346,139.173 135.336,138.485 C133.584,138.405 131.879,138.841 130.223,139.28 C131.6,138.915 135.358,132.863 136.947,131.72" fill="#C0905D"/>
    <path d="M62.963,126.166 C63.033,126.178 60.081,133.249 59.864,133.798 C59.167,135.567 58.645,137.688 57.861,139.353 C57.596,139.918 54.737,143.349 54.74,143.054 C54.762,140.168 50.759,141.794 51.009,138.486 C50.427,138.46 42.431,138.632 42.425,138.72 C42.567,136.268 46.664,135.03 48.027,133.126 C49.472,131.103 48.322,128.034 49.968,126.409 C52.222,128.161 52.288,131.093 56.543,129.72 C58.979,128.934 60.108,125.749 62.963,126.166" fill="#C0905D"/>
    <path d="M54.129,7.004 C54.461,7.128 54.818,7.341 55.215,7.669 C55.861,8.204 55.812,8.716 56.636,8.997 C59.941,10.124 63.576,6.82 67.09,8.814 C67.494,9.044 69.449,9.761 69.657,10.098 C70.149,10.893 67.371,11.442 67.734,12.115 C68.551,13.634 68.685,14.179 70.743,14.802 C73.155,15.532 72.932,15.206 74.668,17.05 C75.985,18.446 76.512,18.555 78.182,19.27 C78.756,19.516 79.77,19.886 80.182,20.043 C80.91,20.32 80.839,21.235 81.765,21.201 C83.062,21.153 82.657,19.113 83.947,18.97 C87.104,18.632 90.839,30.055 91.262,32.194 C92.008,35.962 91.365,39.839 90.389,43.499 C89.998,44.958 89.515,45.967 89.457,47.497 C89.383,49.464 90.237,50.227 90.879,51.938 C93.268,58.302 87.445,65.982 83.939,70.675 C80.1,75.813 71,75.54 65.119,76.17 C54.656,77.291 51.8,91.097 40.29,88.936 C35.797,88.093 31.279,85.288 26.957,83.835 C23.146,82.553 20.505,80.638 19.649,76.782 C18.618,72.138 17.735,73.286 14.296,70.863 C11.554,68.931 11.515,65.508 11.698,62.608 C11.811,60.824 12.704,58.673 12.421,56.945 C12.039,54.622 9.711,53.063 9.846,50.528 C10.106,45.662 12.735,40.667 12.301,35.876 C11.959,32.102 10.114,30.316 11.38,26.354 C12.388,23.194 12.816,22.253 15.297,20.616 C18.097,18.77 21.038,17.718 24.015,16.179 C25.909,15.198 28.123,14.532 29.886,13.328 C32.017,11.872 27.332,11.85 28.407,10.464 C30.074,8.317 38.995,6.472 41.425,7.164 C43.001,7.614 44.462,9.225 46.076,9.466 C47.937,9.745 49.547,8.991 50.959,8.03 C52.095,7.257 52.953,6.565 54.129,7.004" fill="#E1AD6F"/>
    <path d="M39.099,59.866 C41.567,60.706 41.742,63.177 44.726,63.003 C47.855,62.821 48.047,62.034 51.324,62.714 C57.319,63.96 59.941,60.331 63.608,56.664 C61.957,61.064 60.307,63.081 58.291,64.548 C57.327,65.248 54.675,66.749 53.524,66.747 C52.178,66.743 50.63,65.052 49.027,64.876 C47.054,64.66 46.606,65.85 44.81,66.333 C41.637,67.185 41.645,65.919 38.728,64.757 C33.92,62.843 31.065,61.306 29.691,55.564 C31.965,57.499 32.392,60.348 35.558,60.514 C36.311,60.554 38.727,59.74 39.099,59.866" fill="#C0905D"/>
    <path d="M43.456,142.1 C42.389,143.065 41.489,144.985 41.645,146.429 M49.253,142.766 C46.882,143.435 46.12,145.593 46.354,147.761 M30.958,137.604 C29.871,136.605 29.783,134.809 31.139,133.109 M35.577,133.858 C34.279,135.013 33.313,137.604 34.761,138.603 M132.301,141.35 C130.169,141.905 129.298,144.104 130.037,145.763 M135.833,142.1 C135.465,142.147 134.839,142.999 134.475,143.099 C133.67,144.35 133.811,144.932 134.022,146.429 M129.313,130.445 C128.548,131.533 128.412,132.771 128.588,134.108" fill-opacity="0" stroke="#1A1919" stroke-width="1.417" stroke-linecap="round" stroke-linejoin="round"/>
    <path d="M36.291,37.597 C39.047,37.47 38.675,41.813 36.291,41.997 C33.678,42.198 33.356,37.733 36.291,37.597" fill="#1A1919"/>
    <path d="M58.657,38.331 C61.591,38.697 61.514,42.987 58.657,43.097 C56.038,43.198 56.127,38.014 58.657,38.331" fill="#1A1919"/>
    <path d="M43.257,54.005 C45.457,58.13 50.041,58.314 52.425,53.73" fill-opacity="0" stroke="#1A1919" stroke-width="1.417" stroke-linecap="round" stroke-linejoin="round"/>
    <path d="M56.342,45.085 C56.658,45.825 56.897,45.923 56.825,46.763 C53.707,44.013 50.957,42.272 46.924,42.731 C43.693,43.098 41.425,44.014 39.407,46.397 C38.699,46.815 38.877,45.849 38.172,46.343 C38.243,46.345 41.608,40.106 41.608,39.43 C41.608,36.592 41.232,34.468 38.858,32.555 C34.792,29.28 29.09,28.991 31.707,23.755 C32.807,21.555 37.347,23.126 38.307,22.38 C39.191,21.696 36.932,18.255 40.782,17.43 C42.983,16.96 45.899,20.809 48.207,20.456 C50.901,20.044 52.608,16.331 56.018,18.521 C58.029,19.813 57.401,21.987 58.382,22.655 C59.228,23.23 64.983,23.297 64.983,26.23 C64.983,29.404 61.957,30.63 57.375,32.647 C54.928,33.723 53.712,36.876 53.707,38.88 C53.703,41.432 55.372,42.821 56.342,45.085" fill="#C0905D"/>
    <path d="M49.858,45.298 C51.507,46.03 52.103,48.083 50.957,49.514 C49.344,51.53 45.824,50.981 44.724,49.514 C43.877,48.384 44.174,45.847 45.824,45.298 C46.908,44.936 48.914,44.878 49.858,45.298" fill="#897980"/>
    <path d="M49.858,45.298 C51.507,46.03 52.103,48.083 50.957,49.514 C49.344,51.53 45.824,50.981 44.724,49.514 C43.877,48.384 44.174,45.847 45.824,45.298 C46.908,44.936 48.914,44.878 49.858,45.298 z M39.407,44.93 C36.841,47.864 34.824,51.897 38.491,54.831 M56.182,45.206 C59.094,47.36 60.763,50.532 59.025,54.097" fill-opacity="0" stroke="#1A1919" stroke-width="1.417" stroke-linecap="round" stroke-linejoin="round"/>
    <path d="M45.992,127.116 C45.621,128.398 42.268,137.28 40.467,137.604 C37.576,138.126 38.927,133.745 38.837,132.36 C38.659,129.612 41.549,129.772 42.369,127.365 C43.214,124.886 41.554,115.878 45.215,112.509 C47.058,117.098 47.36,122.386 45.992,127.116" fill="#C0905D"/>
    <path d="M43.818,110.133 C45.992,116.46 46.276,124.61 45.267,128.78 C44.145,133.42 44.49,133.384 42.369,137.438" fill-opacity="0" stroke="#1A1919" stroke-width="1.417" stroke-linecap="round" stroke-linejoin="round"/>
    <path d="M140.523,35.071 C144.651,38.313 148.625,40.195 155.09,40.531 C156.367,40.598 150.978,36.298 150.496,35.693 C148.563,33.266 145.946,31.659 142.904,30.587 C141.055,29.934 138.228,28.945 136.221,29.091 C133.383,29.296 133.932,30.612 131.504,31.565 C129.346,32.413 124.205,31.423 122.1,31.134 C115.379,30.214 109.686,29.36 104.303,25.309 C103.719,32.774 113.224,34.033 119.018,35.626 C122.466,36.574 126.053,36.653 129.545,35.688 C132.79,34.792 136.569,32.189 139.818,34.538 C140.061,34.715 140.296,34.892 140.523,35.071" fill="#C0905D"/>
    <path d="M105.403,25.971 C109.206,28.968 113.517,30.172 117.72,31.216 C122.885,32.498 127.274,31.43 132.572,31.216 C132.207,24.734 145.071,32.048 149.418,34.712" fill-opacity="0" stroke="#1A1919" stroke-width="1.417" stroke-linecap="round" stroke-linejoin="round"/>
    <path d="M20.524,19.632 C22.086,16.987 22.189,16.401 24.804,14.54 C26.751,13.152 29.874,12.134 32.317,11.736 C33.502,11.543 34.546,11.995 35.74,11.93 C33.024,7.186 26.347,8.202 23.18,11.28 C21.77,12.651 21.032,14.301 19.711,15.68 C18.449,16.997 16.768,18.042 15.421,19.302 C14.214,20.43 14.223,20.446 13.374,21.831 C12.453,23.335 10.765,26.807 10.064,28.423 C12.609,28.012 12.824,25.68 14.657,24.397 C14.409,24.392 14.965,25.702 15.128,25.901 C15.941,24.031 16.124,22.382 17.752,21.489 C17.934,21.389 20.42,19.807 20.524,19.632" fill="#C0905D"/>
    <path d="M89.08,29.665 C87.53,28.015 86.74,25.425 85.019,23.943 C84.42,24.517 84.016,25.343 83.938,26.007 C81.539,23.336 81.547,20.739 78.556,18.421 C76.91,17.145 73.682,14.741 77.654,14.059 C81.44,13.414 83.905,17.427 85.743,19.805 C87.201,21.69 88.315,23.666 89.068,25.872 C89.352,26.701 89.803,30.38 90.418,30.696 C89.906,30.432 89.47,30.079 89.08,29.665" fill="#C0905D"/>
    <path d="M49.858,5.147 C51.759,4.399 57.78,2.315 61.041,3.314 C58.683,4.616 59.941,4.048 58.291,4.781 C65.082,5.28 72.409,9.166 73.342,9.488 C77.321,10.862 73.545,10.55 77.147,12.569 C86.212,17.651 86.384,20.059 89.101,25.555 C94.246,27.954 101.644,29.057 105.403,26.22 C102.143,23.224 98.882,21.059 98.882,17.729 C101.056,16.398 101.883,15.335 102.143,12.235 C110.735,9.606 107.214,10.571 108.663,4.244 C115.302,6.124 113.916,-1.417 118.988,2.246 C124.06,5.909 136.959,4.227 145.071,7.241 C150.918,9.413 151.765,12.701 156.482,16.731 C160.061,19.789 162.822,23.391 163.545,27.72 C163.727,31.216 164.536,35.609 165.719,38.208 C166.554,40.04 168.514,42.479 170.124,43.831 C173.436,46.611 174.504,61.438 175.258,65.097 C176.442,70.845 177.726,75.796 177.733,81.689 C177.738,87.677 174.157,92.414 173.883,98.739 C173.157,97.075 172.725,93.86 171.957,92.964 C171.772,95.051 171.744,99.476 169.207,103.14 C168.726,102.337 168.498,100.244 168.108,99.289 C165.358,103.414 164.807,106.164 164.09,110.466 C163.069,116.584 162.803,119.457 160.829,120.788 C157.906,122.76 156.916,122.452 154.308,125.118 C151.601,127.886 152.201,127.726 150.686,131.111 C148.208,136.642 142.807,145.679 138.821,146.347 C134.856,147.009 127.806,148.357 127.139,142.1 C126.848,139.372 132.709,137.624 133.659,135.44 C135.833,130.445 136.196,124.784 131.848,120.788 C128.191,117.427 125.75,119.423 119.893,116.126 C115.698,113.767 111.663,107.84 108.432,108.364 C103.814,109.114 92.758,110.564 88.633,113.589 C82.893,117.798 81.026,119.709 76.807,121.289 C72.59,122.87 69.108,124.864 66.907,126.515 C64.057,128.651 62.656,130.445 59.757,135.44 C57.66,139.055 54.308,145.769 51.426,147.095 C46.354,149.426 39.109,148.427 38.747,143.433 C38.58,141.143 40.196,140.768 42.369,136.771 C38.294,139.852 33.494,139.186 29.871,137.104 C28.072,136.071 27.222,135.339 27.517,133.442 C27.879,131.111 30.052,129.113 32.95,128.78 C35.486,127.448 37.66,125.784 37.66,123.452 C37.66,121.446 38.563,116.434 36.936,114.462 C33.494,108.968 23.532,100.809 22.444,89.821 C22.626,90.987 21.72,92.152 20.271,94.15 C20.271,91.153 19.184,88.823 16.829,85.659 C16.649,87.324 17.373,87.49 15.924,89.155 C14.475,86.491 13.338,81.706 12.301,79.165 C10.128,73.838 6.867,68.177 6.505,58.852 C5.418,61.517 4.639,63.216 3.969,64.18 C2.883,61.184 5.056,57.688 6.143,54.025 C5.78,56.023 2.883,58.52 0.709,57.188 C3.245,54.857 5.325,52.126 6.774,47.132 C8.042,42.468 10.265,28.902 11.215,26.554 C13.009,22.118 15.872,18.175 18.822,14.233 C20.834,11.544 23.457,10.535 26.361,8.817 C27.475,8.159 36.84,5.515 38.674,5.515 C36.84,4.964 35.978,4.349 35.191,3.864 C38.823,3.325 40.959,3.481 43.728,4.244 C43.246,3.683 42.894,2.786 42.34,2.214 C45.681,3.133 47.266,3.693 49.858,5.147 z" fill-opacity="0" stroke="#1A1919" stroke-width="1.417" stroke-linecap="round" stroke-linejoin="round"/>
    <path d="M103.326,53.3 C103.281,54.005 101.158,53.61 101.561,55.994 C101.78,57.29 104.071,56.7 104.124,58.864 C104.193,61.667 102.592,60.846 100.835,62.175 C98.513,63.93 97.176,67.405 97.748,70.275 C98.219,72.638 100.944,74.18 100.688,76.593 C100.555,77.837 97.908,81.29 97.012,82.237 C94.084,85.337 87.807,82.487 85.994,85.813 C87.664,82.745 91.024,80.987 92.794,77.914 C95.056,73.989 95.918,68.546 96.708,64.182 C97.414,60.281 97.689,60.305 96.708,55.19 C95.934,51.143 96.625,50.263 95.065,46.732 C93.722,43.689 93.156,40.341 92.684,37.104 C91.875,31.569 89.566,27.366 89.645,26.471 C91.355,27.072 92.337,28.679 93.719,29.966 C98.027,33.973 93.289,38.417 96.527,43.215 C98.69,46.418 103.592,48.886 103.326,53.3" fill="#C0905D"/>
    <path d="M84.754,86.158 C84.829,84.345 85.664,82.511 86.656,80.913 C87.883,78.937 88.791,79.395 90.188,77.917 C92.758,75.186 87.897,70.2 94.535,70.675 C94.683,67.559 94.535,65.18 94.264,62.432 C94.03,60.065 95.129,56.785 95.078,54.441 C95.014,51.446 93.961,49.489 93.447,46.532 C93.16,44.874 92.344,36.884 91.707,36.237 C93.296,37.852 93.517,43.176 94.225,45.664 C95.353,49.635 98.258,50.798 101.6,50.819 C100.33,52.651 98.203,52.069 96.844,52.692 C96.844,54.192 98.067,57.063 102.143,58.561 C102.278,59.602 99.155,60.06 97.252,59.934 C97.388,60.809 95.487,70.05 95.078,72.298 C94.807,74.171 95.621,75.419 98.338,75.794 C96.28,76.781 94.209,77.784 91.819,77.417 C92.334,79.057 94.958,80.065 95.621,80.665 C94.76,79.886 87.742,82.662 84.754,86.158" fill="#FFFFFE"/>
    <path d="M83.666,16.896 C86.994,20.255 87.688,22.602 89.463,26.886 C92.362,33.879 93.635,42.126 93.858,43.464 C94.59,47.864 96.791,50.064 101.6,51.444 C99.426,52.943 99.155,52.692 96.708,52.194 C97.524,56.439 98.882,57.688 102.505,58.52 C99.969,60.518 97.373,59.436 96.708,59.186 C97.795,63.848 95.894,69.925 94.535,73.671 C94.469,73.982 95.35,76.169 98.067,76.169 C96.708,77.667 94.445,77.917 91.999,77.167 C91.999,79.165 93.992,80.414 96.346,80.498 C94.445,82.245 92.905,81.913 90.459,82.662 C87.464,83.162 87.964,83.5 85.791,85.997" fill-opacity="0" stroke="#1A1919" stroke-width="1.417" stroke-linecap="round" stroke-linejoin="round"/>
    <path d="M30.797,17.825 C29.748,18.795 28.597,19.538 27.773,19.809 C25.277,20.632 19.215,22.938 17.15,20.514 C14.547,17.458 17.102,10.175 20.709,9.09 C22.608,8.52 25.137,9.139 26.991,9.604 C28.369,9.952 31.436,10.332 32.516,11.28 C34.567,13.079 32.882,15.899 30.797,17.825" fill="#FAD294"/>
    <path d="M26.149,19.116 C24.565,19.618 22.903,19.834 21.952,19.501 C18.986,18.458 19.831,14.489 21.624,13.031 C24.095,11.022 31.91,14.165 29.933,16.927 C29.327,17.772 27.78,18.596 26.149,19.116" fill="#FCE2AB"/>
    <path d="M21.449,18.729 C19.057,14.132 23.824,10.831 28.957,14.497 M17.826,21.558 C16.091,18.205 15.687,10.85 20.157,9.089 C25.229,7.091 30.546,9.573 33.358,12.389" fill-opacity="0" stroke="#1A1919" stroke-width="1.417" stroke-linecap="round" stroke-linejoin="round"/>
    <path d="M67.86,15.548 C69.127,16.634 70.625,17.544 71.541,17.98 C74.311,19.301 80.188,22.644 81.516,18.288 C82.533,14.95 81.01,9.353 77.382,8.265 C74.375,7.364 67.555,8.1 65.797,11.225 C65.051,12.552 66.274,14.187 67.86,15.548" fill="#FAD294"/>
    <path d="M71.446,17.755 C72.848,18.301 74.531,18.636 75.341,18.356 C78.672,17.206 78.186,12.686 75.157,12.114 C72.529,11.616 67.312,13.796 69.337,16.477 C69.668,16.917 70.492,17.384 71.446,17.755" fill="#FCE2AB"/>
    <path d="M77.725,17.43 C79.008,11.564 74.057,10.831 70.391,13.031 M80.265,20.733 C81.999,17.38 82.405,10.025 77.934,8.265 C72.862,6.267 67.544,8.749 64.733,11.564" fill-opacity="0" stroke="#1A1919" stroke-width="1.417" stroke-linecap="round" stroke-linejoin="round"/>
    <path d="M22.896,18.541 C23.266,17.854 23.588,17.139 24.285,16.647 C26.061,15.392 28.001,17.677 29.657,16.52 C30.837,15.695 30.733,14.261 32.471,13.946 C33.925,13.685 34.767,14.09 34.237,15.733 C33.417,18.275 30.816,20.46 28.366,21.24 C25.943,22.013 23.775,23.125 21.813,24.557 C20.585,25.454 17.691,26.417 17.998,23.663 C18.203,21.826 19.615,20.926 21.157,20.3 C22.089,19.922 22.517,19.245 22.896,18.541" fill="#E1AD6F"/>
    <path d="M78.553,24.585 C75.145,24.419 72.462,21.36 70.223,19.114 C69.271,18.159 68.275,17.022 67.08,16.364 C65.835,15.677 64.154,15.829 63.055,14.9 C60.306,12.575 64.844,12.221 66.437,12.182 C69.776,12.101 68.828,13.628 69.881,15.964 C70.785,17.97 72.156,17.202 73.914,17.064 C75.73,16.921 76.813,17.543 77.963,18.892 C79.323,20.491 83.035,24.804 78.553,24.585" fill="#E1AD6F"/>
  </g>
</svg>
